<svg xmlns="http://www.w3.org/2000/svg" viewBox="0 0 1200 630" width="1200" height="630">
  <defs>
    <mask id="fade2">
      <linearGradient id="fadeGrad2" x1="0" y1="0" x2="0" y2="1">
        <stop offset="0" stop-color="#000"/>
        <stop offset="0.18" stop-color="#fff"/>
        <stop offset="0.82" stop-color="#fff"/>
        <stop offset="1" stop-color="#000"/>
      </linearGradient>
      <rect x="0" y="0" width="1200" height="630" fill="url(#fadeGrad2)"/>
    </mask>
  </defs>
  <rect width="1200" height="630" fill="#100f0c"/>
  <g mask="url(#fade2)" stroke="#2b2620" stroke-width="1">
    <line x1="0" y1="44" x2="1200" y2="44"/><line x1="0" y1="88" x2="1200" y2="88"/>
    <line x1="0" y1="132" x2="1200" y2="132"/><line x1="0" y1="176" x2="1200" y2="176"/>
    <line x1="0" y1="220" x2="1200" y2="220"/><line x1="0" y1="264" x2="1200" y2="264"/>
    <line x1="0" y1="308" x2="1200" y2="308"/><line x1="0" y1="352" x2="1200" y2="352"/>
    <line x1="0" y1="396" x2="1200" y2="396"/><line x1="0" y1="440" x2="1200" y2="440"/>
    <line x1="0" y1="484" x2="1200" y2="484"/><line x1="0" y1="528" x2="1200" y2="528"/>
    <line x1="0" y1="572" x2="1200" y2="572"/>
  </g>
  <!-- document -->
  <g transform="translate(500,315)">
    <rect x="-160" y="-160" width="300" height="320" rx="8" fill="#17150f" stroke="#3a352b" stroke-width="2"/>
    <g stroke="#6c6f8c" stroke-width="6" stroke-linecap="round">
      <line x1="-124" y1="-110" x2="60" y2="-110"/>
      <line x1="-124" y1="-78" x2="100" y2="-78"/>
      <line x1="-124" y1="-30" x2="20" y2="-30"/>
      <line x1="-124" y1="2" x2="90" y2="2"/>
      <line x1="-124" y1="34" x2="60" y2="34"/>
      <line x1="-124" y1="90" x2="100" y2="90"/>
      <line x1="-124" y1="122" x2="70" y2="122"/>
    </g>
  </g>
  <!-- seal -->
  <g transform="translate(760,380)">
    <circle r="120" fill="#2b2210" stroke="#f0b429" stroke-width="4"/>
    <circle r="86" fill="none" stroke="#f0b429" stroke-width="2" stroke-dasharray="6 8"/>
    <path d="M -34 4 L -10 30 L 40 -30" fill="none" stroke="#f0b429" stroke-width="10" stroke-linecap="round" stroke-linejoin="round"/>
  </g>
</svg>
