<svg xmlns="http://www.w3.org/2000/svg" viewBox="0 0 1200 630" width="1200" height="630">
  <defs>
    <mask id="fadesolepr">
      <linearGradient id="fadeGradsolepr" x1="0" y1="0" x2="0" y2="1">
        <stop offset="0" stop-color="#000"/>
        <stop offset="0.18" stop-color="#fff"/>
        <stop offset="0.82" stop-color="#fff"/>
        <stop offset="1" stop-color="#000"/>
      </linearGradient>
      <rect x="0" y="0" width="1200" height="630" fill="url(#fadeGradsolepr)"/>
    </mask>
  </defs>
  <rect width="1200" height="630" fill="#100f0c"/>
  <g mask="url(#fadesolepr)" stroke="#2b2620" stroke-width="1">
    <line x1="0" y1="44" x2="1200" y2="44"/><line x1="0" y1="88" x2="1200" y2="88"/>
    <line x1="0" y1="132" x2="1200" y2="132"/><line x1="0" y1="176" x2="1200" y2="176"/>
    <line x1="0" y1="220" x2="1200" y2="220"/><line x1="0" y1="264" x2="1200" y2="264"/>
    <line x1="0" y1="308" x2="1200" y2="308"/><line x1="0" y1="352" x2="1200" y2="352"/>
    <line x1="0" y1="396" x2="1200" y2="396"/><line x1="0" y1="440" x2="1200" y2="440"/>
    <line x1="0" y1="484" x2="1200" y2="484"/><line x1="0" y1="528" x2="1200" y2="528"/>
    <line x1="0" y1="572" x2="1200" y2="572"/>
  </g>
  <g stroke="#6c6f8c" stroke-width="8" fill="none" stroke-linecap="round">
    <path d="M600 470 L600 340 M600 340 L440 240 M600 340 L760 240"/>
  </g>
  <rect x="360" y="150" width="160" height="110" rx="10" fill="none" stroke="#2dd4bf" stroke-width="6"/>
  <rect x="680" y="150" width="160" height="110" rx="10" fill="none" stroke="#9b95f7" stroke-width="6"/>
  <circle cx="600" cy="470" r="12" fill="#f0b429"/>
</svg>
