<svg xmlns="http://www.w3.org/2000/svg" viewBox="0 0 1200 630" width="1200" height="630">
  <defs>
    <mask id="fadewithho">
      <linearGradient id="fadeGradwithho" x1="0" y1="0" x2="0" y2="1">
        <stop offset="0" stop-color="#000"/>
        <stop offset="0.18" stop-color="#fff"/>
        <stop offset="0.82" stop-color="#fff"/>
        <stop offset="1" stop-color="#000"/>
      </linearGradient>
      <rect x="0" y="0" width="1200" height="630" fill="url(#fadeGradwithho)"/>
    </mask>
  </defs>
  <rect width="1200" height="630" fill="#100f0c"/>
  <g mask="url(#fadewithho)" stroke="#2b2620" stroke-width="1">
    <line x1="0" y1="44" x2="1200" y2="44"/><line x1="0" y1="88" x2="1200" y2="88"/>
    <line x1="0" y1="132" x2="1200" y2="132"/><line x1="0" y1="176" x2="1200" y2="176"/>
    <line x1="0" y1="220" x2="1200" y2="220"/><line x1="0" y1="264" x2="1200" y2="264"/>
    <line x1="0" y1="308" x2="1200" y2="308"/><line x1="0" y1="352" x2="1200" y2="352"/>
    <line x1="0" y1="396" x2="1200" y2="396"/><line x1="0" y1="440" x2="1200" y2="440"/>
    <line x1="0" y1="484" x2="1200" y2="484"/><line x1="0" y1="528" x2="1200" y2="528"/>
    <line x1="0" y1="572" x2="1200" y2="572"/>
  </g>
  <g transform="translate(430,190)" fill="none" stroke="#6c6f8c" stroke-width="5">
    <rect x="0" y="0" width="260" height="330" rx="10"/>
    <g stroke="#f2f3fa" stroke-width="9" stroke-linecap="round">
      <line x1="36" y1="54" x2="224" y2="54"/><line x1="36" y1="96" x2="224" y2="96"/>
      <line x1="36" y1="138" x2="180" y2="138"/>
    </g>
    <line x1="36" y1="240" x2="224" y2="240" stroke="#6c6f8c" stroke-width="3" stroke-dasharray="6 8"/>
    <g stroke="#f0b429" stroke-width="9" stroke-linecap="round">
      <line x1="60" y1="300" x2="200" y2="260"/>
      <circle cx="66" cy="258" r="12" fill="#f0b429" stroke="none"/>
      <circle cx="194" cy="302" r="12" fill="#f0b429" stroke="none"/>
    </g>
  </g>
  <g stroke="#2dd4bf" stroke-width="8" stroke-linecap="round" fill="none">
    <path d="M760 300 l30 34 l70 -80"/>
  </g>
</svg>
